<svg xmlns="http://www.w3.org/2000/svg" viewBox="0 0 79.07 67"><defs><style>.a{fill:#d8af61;}</style></defs><title>trigger-icon-2</title><path class="a" d="M64.28,6.9,63.45,1a1.13,1.13,0,0,0-1.29-1L55.63,1A1.13,1.13,0,0,0,56,3.24l3.81-.58a92.53,92.53,0,0,1-16.3,15.95A66.7,66.7,0,0,1,28,27.36c-8.95,3.53-15.06,3.3-15.12,3.29a1.13,1.13,0,0,0-.11,2.25h.45c1.62,0,7.4-.25,15.46-3.4a68.82,68.82,0,0,0,16-9A94.75,94.75,0,0,0,61.59,4L62,7.21a1.13,1.13,0,0,0,1.12,1h.16a1.13,1.13,0,0,0,1-1.27Zm0,0"/><path class="a" d="M77,60.8H67.88A13.74,13.74,0,0,0,70,59.07a13.58,13.58,0,0,0-3-21.48V33a1.13,1.13,0,0,0-2.25,0v3.55a13.55,13.55,0,0,0-9.45.28V23a.26.26,0,0,1,.26-.26h8.92a.26.26,0,0,1,.26.26v2.8a1.13,1.13,0,0,0,2.25,0V23a2.52,2.52,0,0,0-2.52-2.52H55.54A2.52,2.52,0,0,0,53,23V38a13.59,13.59,0,0,0-2.25,21,13.74,13.74,0,0,0,2.11,1.73H45.76V33.25a2.52,2.52,0,0,0-2.52-2.52H34.32a2.52,2.52,0,0,0-2.52,2.52V60.8H24.54V42.52A2.52,2.52,0,0,0,22,40H13.1a2.52,2.52,0,0,0-2.52,2.52V60.8H5.94v-58A2.08,2.08,0,0,0,3.86.75H2.08A2.08,2.08,0,0,0,0,2.83v8a1.13,1.13,0,0,0,2.25,0V3H3.69V61A2.08,2.08,0,0,0,5.77,63h71v1.7H2.25V18A1.13,1.13,0,1,0,0,18v47A2.08,2.08,0,0,0,2.08,67H77a2.08,2.08,0,0,0,2.08-2.08v-2A2.08,2.08,0,0,0,77,60.8Zm-54.7,0H12.84V42.52a.26.26,0,0,1,.26-.26H22a.26.26,0,0,1,.26.26Zm11.77,0V33.25a.26.26,0,0,1,.26-.26h8.92a.26.26,0,0,1,.26.26V60.8Zm31.3-1.15a11.4,11.4,0,0,1-3.65,1.07h-.06l-.26,0-.4,0H59.74l-.37,0-.3,0-.22,0-.31,0h0a11.32,11.32,0,0,1-3.79-1.36h0a11.38,11.38,0,0,1-2.33-1.79,11.33,11.33,0,0,1,2.71-18l.08,0a11.38,11.38,0,0,1,9.44-.46l.07,0,.42.18.17.08a11.34,11.34,0,0,1,.15,20.4l0,0Zm0,0"/><path class="a" d="M60.9,48.37v-4c1.38.1,1.9.73,2.37.73s.87-.75.87-1.13c0-1-1.9-1.38-3.24-1.42V42c0-.24-.3-.45-.59-.45a.52.52,0,0,0-.57.45v.57c-1.88.2-3.76,1.19-3.76,3.68s2,3.24,3.76,3.88v4.65c-2-.16-2.55-1.54-3.2-1.54-.49,0-.91.65-.91,1.13,0,1,1.66,2.29,4.11,2.33v.61a.52.52,0,0,0,.57.46c.3,0,.59-.22.59-.46v-.67a3.83,3.83,0,0,0,3.6-4.07c0-2.69-1.88-3.56-3.6-4.19Zm-1-.38c-1-.4-1.9-.81-1.9-1.94s.79-1.52,1.9-1.66Zm.93,6.74V50.56a2.31,2.31,0,0,1,1.74,2.22,1.88,1.88,0,0,1-1.74,2Zm0,0"/></svg>