<svg xmlns="http://www.w3.org/2000/svg" viewBox="0 0 74.18 67"><defs><style>.a{fill:#d8af61;}</style></defs><title>trigger-icon-1</title><path class="a" d="M45,31.15a1.21,1.21,0,0,0,1.13.79,7.27,7.27,0,0,0,3.89-13.4,14.24,14.24,0,0,0-25.71,0,7.27,7.27,0,0,0,3.89,13.4,1.21,1.21,0,0,0,1.13-.79,10.23,10.23,0,0,0,3,2.48,10.18,10.18,0,0,0-5.37,9,1.21,1.21,0,1,0,2.41,0,7.75,7.75,0,0,1,15.5,0,1.21,1.21,0,0,0,2.41,0,10.18,10.18,0,0,0-5.37-9,10.23,10.23,0,0,0,3-2.48ZM47.37,20a4.86,4.86,0,0,1,0,9.41ZM27,29.37A4.86,4.86,0,0,1,27,20Zm1.21-12h-.38a11.83,11.83,0,0,1,18.67,0h-.38a1.21,1.21,0,0,0-1.13.79,10.15,10.15,0,0,0-15.66,0,1.21,1.21,0,0,0-1.13-.79Zm9,15a7.73,7.73,0,0,1-5.71-2.52h3.46a1.21,1.21,0,1,0,0-2.41H30a7.75,7.75,0,1,1,7.22,4.93Zm0,0"/><path class="a" d="M68.27,0H5.9A5.91,5.91,0,0,0,0,5.9v8.58a1.21,1.21,0,1,0,2.41,0V5.9A3.49,3.49,0,0,1,5.9,2.41H68.27A3.49,3.49,0,0,1,71.76,5.9v41.2H64.2a1.21,1.21,0,0,0,0,2.41h7.56v2.21a3.49,3.49,0,0,1-3.49,3.49H5.9a3.49,3.49,0,0,1-3.49-3.49V49.52H60.17a1.21,1.21,0,0,0,0-2.41H2.41V18.51a1.21,1.21,0,1,0-2.41,0V51.74a5.91,5.91,0,0,0,5.9,5.9H26.59l-3,6.95h-5.8a1.21,1.21,0,1,0,0,2.41H56.35a1.21,1.21,0,1,0,0-2.41h-5.8l-3-6.95H68.27a5.91,5.91,0,0,0,5.9-5.9V5.9A5.91,5.91,0,0,0,68.27,0ZM47.93,64.59H26.25l2.06-4.83H45.87Zm0,0"/><path class="a" d="M38.09,51.42a1.21,1.21,0,1,0-.13,1.5,1.22,1.22,0,0,0,.13-1.5Zm0,0"/></svg>