<?xml version="1.0" encoding="utf-8"?>
<!-- Generator: Adobe Illustrator 21.1.0, SVG Export Plug-In . SVG Version: 6.00 Build 0)  -->
<svg version="1.1" id="Слой_1" xmlns="http://www.w3.org/2000/svg" xmlns:xlink="http://www.w3.org/1999/xlink" x="0px" y="0px"
	 viewBox="0 0 79.8 67" style="enable-background:new 0 0 79.8 67;" xml:space="preserve">
<style type="text/css">
	.st0{fill:#D8AF61;}
</style>
<title>trigger-icon-3</title>
<path class="st0" d="M66.9,5H4C1.8,5,0,6.8,0,9v31.5c0,2.2,1.8,4,4,4h2.4c0.6,0.1,1.2-0.4,1.2-1c0.1-0.6-0.4-1.2-1-1.2
	c-0.1,0-0.1,0-0.2,0H4c-1,0-1.7-0.8-1.7-1.7V9C2.3,8,3,7.3,4,7.3h62.9c1,0,1.7,0.8,1.7,1.7c0,0,0,0,0,0v11c0.1,0.6,0.6,1.1,1.2,1
	c0.5-0.1,1-0.5,1-1V9C70.9,6.8,69.1,5,66.9,5z"/>
<path class="st0" d="M66.4,13.6c-1.8-0.8-3.2-2.2-4-4.1c-0.3-0.8-1.1-1.3-1.9-1.3h-50c-0.9,0-1.7,0.5-2,1.3c-0.8,1.8-2.2,3.3-4,4.1
	c-0.8,0.3-1.3,1.1-1.3,1.9V34c0,0.8,0.5,1.6,1.3,1.9c0.4,0.2,0.9,0.4,1.3,0.7c0.5,0.4,1.2,0.4,1.6-0.1c0.4-0.5,0.4-1.2-0.1-1.6
	c-0.1-0.1-0.2-0.2-0.3-0.2c-0.5-0.3-1-0.6-1.5-0.9V15.6c2.2-1,4-2.8,5-5.1h49.9c1,2.3,2.8,4.1,5,5.1V20c-0.1,0.6,0.4,1.2,1,1.2
	c0.6,0.1,1.2-0.4,1.2-1c0-0.1,0-0.1,0-0.2v-4.5C67.7,14.7,67.2,13.9,66.4,13.6L66.4,13.6z"/>
<path class="st0" d="M47.2,19.6c-2.8-6.5-10.4-9.4-16.8-6.6c-2.9,1.3-5.3,3.6-6.6,6.6c-0.3,0.6-0.1,1.2,0.5,1.5
	c0.6,0.3,1.2,0.1,1.5-0.5c0,0,0-0.1,0.1-0.1c2.3-5.3,8.5-7.7,13.8-5.4c2.4,1.1,4.3,3,5.4,5.4c0.3,0.6,1,0.8,1.5,0.4
	C47.1,20.7,47.3,20.2,47.2,19.6L47.2,19.6z"/>
<path class="st0" d="M75.8,22.5H36.2v-2.9c1.5,0.1,2,0.8,2.5,0.8s0.9-0.8,0.9-1.2c0-1-2-1.5-3.4-1.5v-0.6c0-0.3-0.3-0.5-0.6-0.5
	c-0.3,0-0.6,0.2-0.6,0.5v0.6c-2,0.2-4,1.3-4,3.9c0,0.3,0,0.6,0.1,0.9H12.8c-2.2,0-4,1.8-4,4V58c0,2.2,1.8,4,4,4h62.9
	c2.2,0,4-1.8,4-4V26.5C79.8,24.3,78,22.5,75.8,22.5z M35.1,19.6v2.9h-1.6c-0.3-0.3-0.4-0.7-0.4-1.1C33.1,20.3,33.9,19.8,35.1,19.6
	L35.1,19.6z M75.8,59.7H12.8c-1,0-1.7-0.8-1.7-1.7V26.5c0-1,0.8-1.7,1.7-1.7h62.9c1,0,1.7,0.8,1.7,1.7v0V58
	C77.5,59,76.7,59.7,75.8,59.7L75.8,59.7z"/>
<path class="st0" d="M75.3,31.1c-1.8-0.8-3.2-2.2-4-4.1c-0.3-0.8-1.1-1.3-1.9-1.3h-50c-0.9,0-1.7,0.5-2,1.3c-0.8,1.8-2.2,3.3-4,4.1
	c-0.8,0.3-1.3,1.1-1.3,1.9v18.5c0,0.8,0.5,1.6,1.3,1.9c1.8,0.8,3.2,2.2,4,4.1c0.3,0.8,1.1,1.3,1.9,1.3h50c0.8,0,1.6-0.5,1.9-1.3
	c0.8-1.8,2.2-3.3,4-4.1c0.8-0.3,1.3-1.1,1.3-1.9V33C76.5,32.2,76,31.4,75.3,31.1L75.3,31.1z M74.3,51.4c-2.2,1-4,2.8-5,5.1H19.4
	c-1-2.3-2.8-4.1-5-5.1V33.1c2.2-1,4-2.8,5-5.1h49.8c1,2.3,2.8,4.1,5,5.1L74.3,51.4z"/>
<path class="st0" d="M44.3,29.5c-7,0-12.8,5.7-12.8,12.8S37.3,55,44.3,55s12.8-5.7,12.8-12.8l0,0C57.1,35.2,51.4,29.5,44.3,29.5z
	 M44.3,52.7c-5.8,0-10.5-4.7-10.5-10.5s4.7-10.5,10.5-10.5c5.8,0,10.5,4.7,10.5,10.5v0C54.8,48,50.1,52.7,44.3,52.7z"/>
<path class="st0" d="M45,40.9v-4.3c1.5,0.1,2,0.8,2.5,0.8s0.9-0.8,0.9-1.2c0-1-2-1.5-3.4-1.5v-0.6c0-0.3-0.3-0.5-0.6-0.5
	c-0.3,0-0.6,0.2-0.6,0.5v0.6c-2,0.2-4,1.3-4,3.9c0,2.6,2.1,3.4,4,4.1v4.9c-2.1-0.2-2.7-1.6-3.4-1.6c-0.5,0-1,0.7-1,1.2
	c0,1,1.8,2.4,4.4,2.5v0.7c0,0.3,0.3,0.5,0.6,0.5c0.3,0,0.6-0.2,0.6-0.5v-0.7c2.2-0.1,3.9-2.1,3.8-4.3c0,0,0,0,0,0
	C48.8,42.5,46.8,41.6,45,40.9L45,40.9z M43.9,40.5c-1.1-0.4-2-0.9-2-2s0.8-1.6,2-1.8V40.5z M44.9,47.6v-4.4c1.1,0.3,1.8,1.2,1.8,2.3
	C46.8,46.6,46,47.6,44.9,47.6L44.9,47.6z"/>
</svg>
